<svg width="960" height="960" viewBox="0 0 960 960" fill="none" xmlns="http://www.w3.org/2000/svg">
<path fill-rule="evenodd" clip-rule="evenodd" d="M395.493 4.38325C192.037 47.5928 43.464 195.214 6.29508 391.074C-1.11398 430.094 -2.22653 521.588 4.2595 557.977C36.6649 739.737 168.186 888.8 342.056 940.824C432.391 967.85 544.433 966.202 632.435 936.557C780.036 886.831 898.3 763.953 941.292 615.653C956.048 564.753 959.967 536.047 960 478.556C960.144 250.9 806.771 60.6628 582.01 9.69695C544.932 1.28571 527.522 -0.296073 475.848 0.0416953C441.852 0.264128 405.692 2.21659 395.493 4.38325ZM694.04 309.944C655.536 327.409 643.285 379.553 670.177 411.501C699.912 446.826 747.873 444.351 776.281 406.026C782.722 397.339 784.902 388.298 784.902 370.285C784.902 344.433 778.14 331.058 757.141 315.385C743.501 305.207 710.721 302.381 694.04 309.944ZM240.966 392.577C206.793 407.761 190.941 453.606 209.513 483.561C213.724 490.357 261.582 540.689 315.865 595.411C421.953 702.36 430.264 708.374 463.333 702.175C484.39 698.224 508.834 675.063 514.187 653.985C516.552 644.676 517.854 634.959 517.084 632.393C516.313 629.831 514.471 622.169 512.992 615.372C509.675 600.132 313.977 401.294 293.637 392.495C277.146 385.365 257.128 385.394 240.966 392.577ZM562.177 441.986C520.603 460.086 510.783 515.331 543.353 547.893C589.65 594.171 665.516 552.721 653.336 487.799C650.204 471.121 634.331 450.805 617.728 442.221C603.368 434.798 578.924 434.696 562.177 441.986Z" fill="#15B86C"/>
</svg>
